<?xml version="1.0" encoding="UTF-8"?>
<svg id="_レイヤー_1" data-name="レイヤー_1" xmlns="http://www.w3.org/2000/svg" version="1.1" viewBox="0 0 144.77 155.04">
  <!-- Generator: Adobe Illustrator 29.5.1, SVG Export Plug-In . SVG Version: 2.1.0 Build 141)  -->
  <defs>
    <style>
      .st0 {
        fill: #fff;
      }

      .st0, .st1 {
        stroke: #231815;
        stroke-miterlimit: 10;
        stroke-width: 2px;
      }

      .st1 {
        fill: none;
      }
    </style>
  </defs>
  <polygon class="st0" points="677.89 128.38 677.89 120.11 677.89 38.35 694.43 12.62 762.41 -22.29 791.81 -14.94 832.23 8.95 846.93 24.56 861.63 53.05 857.04 128.38 816.62 166.05 779.87 166.05 709.13 147.67 677.89 128.38"/>
  <polyline class="st1" points="791.81 -14.94 839.82 47.49 861.63 53.05"/>
  <polyline class="st1" points="839.82 47.49 826.72 71.88 822.1 112.64 857.04 128.38"/>
  <polyline class="st1" points="822.1 112.64 812.39 116.07 802.68 156.07 816.62 166.05"/>
  <polyline class="st1" points="812.39 116.07 767.25 108.07 758.67 93.78 826.72 71.88"/>
  <polyline class="st1" points="758.67 93.78 710.67 60.64 677.89 71.88"/>
  <line class="st1" x1="710.67" y1="60.64" x2="728.04" y2="-4.64"/>
  <polyline class="st1" points="767.25 108.07 744.39 132.64 692.39 125.78 677.89 128.38"/>
  <line class="st1" x1="692.39" y1="125.78" x2="677.89" y2="105.21"/>
  <line class="st1" x1="744.39" y1="132.64" x2="802.68" y2="156.07"/>
  <polygon class="st0" points="306.79 40.76 298.87 68.97 307.29 102.03 322.71 129.73 354.07 164.65 387.66 166.8 431.14 145.78 456.5 114 466.59 80.95 460.12 55.92 420.81 4.34 368.09 10.91 306.79 40.76"/>
  <polyline class="st1" points="368.09 10.91 361.15 20.66 344.26 44.41 409.6 79.38 430.54 55.31 414.39 11.9 420.81 4.34"/>
  <line class="st1" x1="414.39" y1="11.9" x2="362.99" y2="18.07"/>
  <polyline class="st1" points="344.26 44.41 326.89 55.75 318.15 35.22"/>
  <polyline class="st1" points="326.89 55.75 316.01 103.65 307.29 102.03"/>
  <polyline class="st1" points="316.01 103.65 324.11 113.99 322.71 129.73"/>
  <polyline class="st1" points="324.11 113.99 359.12 134.3 371.77 161.07 354.07 164.65"/>
  <line class="st1" x1="371.77" y1="161.07" x2="400.15" y2="160.76"/>
  <polyline class="st1" points="359.12 134.3 404.64 111.04 409.6 79.38"/>
  <line class="st1" x1="404.64" y1="111.04" x2="436.89" y2="138.57"/>
  <polyline class="st1" points="430.54 55.31 448.41 76.1 466.59 80.95"/>
  <line class="st1" x1="448.41" y1="76.1" x2="433.25" y2="135.47"/>
  <polygon class="st0" points="1.12 91.72 30.08 133.89 40.36 143.15 70.08 153.89 120.66 105.81 143.61 74.19 109.32 6 60.55 1.05 19.03 45.62 1.12 91.72"/>
  <polyline class="st1" points="88.37 93.92 60.55 59.11 27.65 36.37 13.31 73.05 1.12 91.72"/>
  <polyline class="st1" points="85.32 122.96 120.66 105.81 108.94 91.72 88.37 93.92 80.36 107.34"/>
  <polyline class="st1" points="46.08 80.29 60.55 59.11 97.13 8.66 95.59 4.6"/>
  <line class="st1" x1="97.13" y1="8.66" x2="112.61" y2="12.54"/>
  <line class="st1" x1="135.11" y1="57.29" x2="108.94" y2="91.72"/>
  <polyline class="st1" points="13.31 73.05 46.08 80.29 80.36 107.34 85.32 122.96 70.08 153.89"/>
  <polygon class="st0" points="-206.33 31.28 -237.57 36.23 -247.47 42.33 -270.71 100.24 -270.71 109.76 -267.28 115.79 -236.04 139.86 -202.52 139.86 -196.42 135.21 -176.23 98.58 -171.28 77.65 -173.57 60.23 -206.33 31.28"/>
  <polyline class="st1" points="-237.57 36.23 -233.61 66.24 -229.78 71.88 -205 85.57 -179.66 85.57 -173.57 60.23"/>
  <polyline class="st1" points="-179.66 85.57 -179.66 94.45 -176.23 98.58"/>
  <polyline class="st1" points="-179.66 94.45 -197.94 108.35 -203.99 121.57 -196.42 135.21"/>
  <polyline class="st1" points="-203.99 121.57 -236.64 135.21 -252.56 114.83 -270.71 109.76"/>
  <polyline class="st1" points="-252.56 114.83 -245.3 97.47 -243.69 88 -246.91 80.34 -262.73 80.34"/>
  <line class="st1" x1="-246.91" y1="80.34" x2="-233.61" y2="66.24"/>
  <line class="st1" x1="-229.78" y1="71.88" x2="-243.69" y2="88"/>
  <polyline class="st1" points="-205 85.57 -203.99 97.59 -197.94 108.35"/>
  <line class="st1" x1="-203.99" y1="97.59" x2="-245.3" y2="97.47"/>
  <line class="st1" x1="-236.64" y1="135.21" x2="-236.04" y2="139.86"/>
  <polygon class="st0" points="-461.16 120.08 -475.07 102.54 -477.49 76.37 -467.41 63.05 -431.54 62.24 -414.4 87.56 -426.27 117.15 -445.94 125.71 -461.16 120.08"/>
  <polyline class="st1" points="-431.54 62.24 -432.75 74.73 -419.65 88.04 -431.94 99.12 -426.27 117.15"/>
  <line class="st1" x1="-419.65" y1="88.04" x2="-414.4" y2="87.56"/>
  <polyline class="st1" points="-475.07 102.54 -452.3 114.23 -437.39 101.04 -431.94 99.12"/>
  <line class="st1" x1="-452.3" y1="114.23" x2="-445.94" y2="125.71"/>
  <polyline class="st1" points="-429.7 97.09 -438.59 89.69 -476.26 89.69"/>
  <polyline class="st1" points="-437.39 101.04 -438.59 89.69 -432.75 74.73 -436.78 62.24"/>
</svg>