<?xml version="1.0" encoding="UTF-8"?>
<svg id="_レイヤー_1" data-name="レイヤー_1" xmlns="http://www.w3.org/2000/svg" version="1.1" viewBox="0 0 169.32 164.06">
  <!-- Generator: Adobe Illustrator 29.5.1, SVG Export Plug-In . SVG Version: 2.1.0 Build 141)  -->
  <defs>
    <style>
      .st0 {
        fill: #fff;
        stroke: #231815;
        stroke-miterlimit: 10;
        stroke-width: 1.54px;
      }
    </style>
  </defs>
  <polygon class="st0" points="8.72 37.24 .8 65.45 9.22 98.51 24.64 126.21 56 161.13 89.59 163.28 133.07 142.26 158.43 110.48 168.52 77.43 162.05 52.4 122.74 .82 70.02 7.39 8.72 37.24"/>
  <polyline class="st0" points="70.02 7.39 63.08 17.14 46.19 40.89 111.53 75.86 132.47 51.8 116.32 8.39 122.74 .82"/>
  <line class="st0" x1="116.32" y1="8.39" x2="64.92" y2="14.55"/>
  <polyline class="st0" points="46.19 40.89 28.82 52.24 20.08 31.71"/>
  <polyline class="st0" points="28.82 52.24 17.94 100.13 9.22 98.51"/>
  <polyline class="st0" points="17.94 100.13 26.04 110.47 24.64 126.21"/>
  <polyline class="st0" points="26.04 110.47 61.05 130.79 73.69 157.55 56 161.13"/>
  <line class="st0" x1="73.69" y1="157.55" x2="102.08" y2="157.24"/>
  <polyline class="st0" points="61.05 130.79 106.57 107.52 111.53 75.86"/>
  <line class="st0" x1="106.57" y1="107.52" x2="138.82" y2="135.05"/>
  <polyline class="st0" points="132.47 51.8 150.34 72.58 168.52 77.43"/>
  <line class="st0" x1="150.34" y1="72.58" x2="135.18" y2="131.95"/>
</svg>