<?xml version="1.0" encoding="UTF-8"?>
<svg id="_レイヤー_1" data-name="レイヤー_1" xmlns="http://www.w3.org/2000/svg" version="1.1" viewBox="0 0 100.98 110.16">
  <!-- Generator: Adobe Illustrator 29.5.1, SVG Export Plug-In . SVG Version: 2.1.0 Build 141)  -->
  <defs>
    <style>
      .st0 {
        fill: #fff;
        stroke: #231815;
        stroke-miterlimit: 10;
        stroke-width: 1.54px;
      }
    </style>
  </defs>
  <polygon class="st0" points="65.15 .82 33.91 5.77 24.01 11.86 .77 69.77 .77 79.3 4.2 85.33 35.44 109.39 68.96 109.39 75.06 104.74 95.25 68.11 100.2 47.19 97.92 29.77 65.15 .82"/>
  <polyline class="st0" points="33.91 5.77 37.87 35.77 41.7 41.41 66.48 55.1 91.82 55.1 97.92 29.77"/>
  <polyline class="st0" points="91.82 55.1 91.82 63.99 95.25 68.11"/>
  <polyline class="st0" points="91.82 63.99 73.54 77.89 67.49 91.11 75.06 104.74"/>
  <polyline class="st0" points="67.49 91.11 34.85 104.74 18.93 84.36 .77 79.3"/>
  <polyline class="st0" points="18.93 84.36 26.18 67.01 27.79 57.54 24.57 49.88 8.75 49.88"/>
  <line class="st0" x1="24.57" y1="49.88" x2="37.87" y2="35.77"/>
  <line class="st0" x1="41.7" y1="41.41" x2="27.79" y2="57.54"/>
  <polyline class="st0" points="66.48 55.1 67.49 67.12 73.54 77.89"/>
  <line class="st0" x1="67.49" y1="67.12" x2="26.18" y2="67.01"/>
  <line class="st0" x1="34.85" y1="104.74" x2="35.44" y2="109.39"/>
</svg>