<?xml version="1.0" encoding="UTF-8"?>
<svg id="_レイヤー_1" data-name="レイヤー_1" xmlns="http://www.w3.org/2000/svg" version="1.1" viewBox="0 0 185.29 189.92">
  <!-- Generator: Adobe Illustrator 29.5.1, SVG Export Plug-In . SVG Version: 2.1.0 Build 141)  -->
  <defs>
    <style>
      .st0 {
        fill: none;
        stroke: #231815;
        stroke-miterlimit: 10;
        stroke-width: 1.54px;
      }
    </style>
  </defs>
  <polygon class="st0" points=".77 151.49 .77 143.22 .77 61.45 17.31 35.73 85.29 .82 114.69 8.17 155.11 32.05 169.81 47.67 184.51 76.15 179.92 151.49 139.5 189.15 102.75 189.15 32.01 170.78 .77 151.49"/>
  <polyline class="st0" points="114.69 8.17 162.7 70.6 184.51 76.15"/>
  <polyline class="st0" points="162.7 70.6 149.6 94.98 144.98 135.74 179.92 151.49"/>
  <polyline class="st0" points="144.98 135.74 135.27 139.17 125.56 179.17 139.5 189.15"/>
  <polyline class="st0" points="135.27 139.17 90.13 131.17 81.55 116.89 149.6 94.98"/>
  <polyline class="st0" points="81.55 116.89 33.55 83.74 .77 94.98"/>
  <line class="st0" x1="33.55" y1="83.74" x2="50.92" y2="18.47"/>
  <polyline class="st0" points="90.13 131.17 67.27 155.75 15.27 148.89 .77 151.49"/>
  <line class="st0" x1="15.27" y1="148.89" x2=".77" y2="128.32"/>
  <line class="st0" x1="67.27" y1="155.75" x2="125.56" y2="179.17"/>
</svg>