<?xml version="1.0" encoding="UTF-8"?>
<svg id="_レイヤー_1" data-name="レイヤー_1" xmlns="http://www.w3.org/2000/svg" version="1.1" viewBox="0 0 101.45 110.64">
  <!-- Generator: Adobe Illustrator 29.5.1, SVG Export Plug-In . SVG Version: 2.1.0 Build 141)  -->
  <defs>
    <style>
      .st0 {
        fill: #fff;
      }

      .st0, .st1 {
        stroke: #231815;
        stroke-miterlimit: 10;
        stroke-width: 2px;
      }

      .st1 {
        fill: none;
      }
    </style>
  </defs>
  <polygon class="st0" points="949.6 98.16 949.6 89.89 949.6 8.13 966.14 -17.6 1034.12 -52.51 1063.52 -45.16 1103.95 -21.27 1118.65 -5.65 1133.35 22.83 1128.75 98.16 1088.33 135.83 1051.58 135.83 980.84 117.45 949.6 98.16"/>
  <polyline class="st1" points="1063.52 -45.16 1111.53 17.27 1133.35 22.83"/>
  <polyline class="st1" points="1111.53 17.27 1098.43 41.66 1093.82 82.42 1128.75 98.16"/>
  <polyline class="st1" points="1093.82 82.42 1084.1 85.85 1074.39 125.85 1088.33 135.83"/>
  <polyline class="st1" points="1084.1 85.85 1038.96 77.85 1030.39 63.56 1098.43 41.66"/>
  <polyline class="st1" points="1030.39 63.56 982.39 30.42 949.6 41.66"/>
  <line class="st1" x1="982.39" y1="30.42" x2="999.75" y2="-34.86"/>
  <polyline class="st1" points="1038.96 77.85 1016.1 102.42 964.1 95.56 949.6 98.16"/>
  <line class="st1" x1="964.1" y1="95.56" x2="949.6" y2="74.99"/>
  <line class="st1" x1="1016.1" y1="102.42" x2="1074.39" y2="125.85"/>
  <polygon class="st0" points="578.5 10.54 570.58 38.75 579 71.81 594.42 99.51 625.78 134.43 659.38 136.58 702.85 115.56 728.21 83.78 738.3 50.73 731.84 25.7 692.53 -25.88 639.8 -19.31 578.5 10.54"/>
  <polyline class="st1" points="639.8 -19.31 632.86 -9.56 615.98 14.19 681.31 49.16 702.25 25.1 686.11 -18.32 692.53 -25.88"/>
  <line class="st1" x1="686.11" y1="-18.32" x2="634.71" y2="-12.15"/>
  <polyline class="st1" points="615.98 14.19 598.6 25.54 589.87 5.01"/>
  <polyline class="st1" points="598.6 25.54 587.72 73.43 579 71.81"/>
  <polyline class="st1" points="587.72 73.43 595.82 83.77 594.42 99.51"/>
  <polyline class="st1" points="595.82 83.77 630.83 104.09 643.48 130.85 625.78 134.43"/>
  <line class="st1" x1="643.48" y1="130.85" x2="671.87" y2="130.54"/>
  <polyline class="st1" points="630.83 104.09 676.35 80.82 681.31 49.16"/>
  <line class="st1" x1="676.35" y1="80.82" x2="708.6" y2="108.35"/>
  <polyline class="st1" points="702.25 25.1 720.12 45.88 738.3 50.73"/>
  <line class="st1" x1="720.12" y1="45.88" x2="704.97" y2="105.25"/>
  <polygon class="st0" points="272.84 61.5 301.79 103.67 312.08 112.93 341.79 123.67 392.37 75.59 415.32 43.97 381.03 -24.22 332.27 -29.17 290.74 15.4 272.84 61.5"/>
  <polyline class="st1" points="360.08 63.7 332.27 28.89 299.36 6.15 285.03 42.83 272.84 61.5"/>
  <polyline class="st1" points="357.03 92.74 392.37 75.59 380.65 61.5 360.08 63.7 352.08 77.12"/>
  <polyline class="st1" points="317.79 50.07 332.27 28.89 368.84 -21.55 367.3 -25.62"/>
  <line class="st1" x1="368.84" y1="-21.55" x2="384.32" y2="-17.68"/>
  <line class="st1" x1="406.82" y1="27.08" x2="380.65" y2="61.5"/>
  <polyline class="st1" points="285.03 42.83 317.79 50.07 352.08 77.12 357.03 92.74 341.79 123.67"/>
  <polygon class="st0" points="65.38 1.06 34.14 6.01 24.24 12.11 1 70.02 1 79.54 4.43 85.57 35.67 109.64 69.19 109.64 75.29 104.99 95.48 68.36 100.43 47.43 98.15 30.02 65.38 1.06"/>
  <polyline class="st1" points="34.14 6.01 38.1 36.02 41.93 41.66 66.72 55.35 92.05 55.35 98.15 30.02"/>
  <polyline class="st1" points="92.05 55.35 92.05 64.23 95.48 68.36"/>
  <polyline class="st1" points="92.05 64.23 73.77 78.14 67.72 91.35 75.29 104.99"/>
  <polyline class="st1" points="67.72 91.35 35.08 104.99 19.16 84.61 1 79.54"/>
  <polyline class="st1" points="19.16 84.61 26.41 67.25 28.02 57.78 24.8 50.12 8.98 50.12"/>
  <line class="st1" x1="24.8" y1="50.12" x2="38.1" y2="36.02"/>
  <line class="st1" x1="41.93" y1="41.66" x2="28.02" y2="57.78"/>
  <polyline class="st1" points="66.72 55.35 67.72 67.37 73.77 78.14"/>
  <line class="st1" x1="67.72" y1="67.37" x2="26.41" y2="67.25"/>
  <line class="st1" x1="35.08" y1="104.99" x2="35.67" y2="109.64"/>
  <polygon class="st0" points="-189.45 89.86 -203.36 72.33 -205.77 46.15 -195.7 32.83 -159.83 32.02 -142.68 57.34 -154.56 86.93 -174.23 95.49 -189.45 89.86"/>
  <polyline class="st1" points="-159.83 32.02 -161.04 44.52 -147.94 57.82 -160.23 68.9 -154.56 86.93"/>
  <line class="st1" x1="-147.94" y1="57.82" x2="-142.68" y2="57.34"/>
  <polyline class="st1" points="-203.36 72.33 -180.58 84.01 -165.67 70.82 -160.23 68.9"/>
  <line class="st1" x1="-180.58" y1="84.01" x2="-174.23" y2="95.49"/>
  <polyline class="st1" points="-157.98 66.87 -166.88 59.48 -204.54 59.48"/>
  <polyline class="st1" points="-165.67 70.82 -166.88 59.48 -161.04 44.52 -165.07 32.02"/>
</svg>