<?xml version="1.0" encoding="UTF-8"?>
<svg id="_レイヤー_1" data-name="レイヤー_1" xmlns="http://www.w3.org/2000/svg" version="1.1" viewBox="0 0 65.25 65.55">
  <!-- Generator: Adobe Illustrator 29.5.1, SVG Export Plug-In . SVG Version: 2.1.0 Build 141)  -->
  <defs>
    <style>
      .st0 {
        fill: #fff;
      }

      .st0, .st1 {
        stroke: #231815;
        stroke-miterlimit: 10;
        stroke-width: 2px;
      }

      .st1 {
        fill: none;
      }
    </style>
  </defs>
  <polygon class="st0" points="1156.41 67.15 1156.41 58.88 1156.41 -22.88 1172.94 -48.61 1240.93 -83.52 1270.33 -76.17 1310.75 -52.28 1325.45 -36.66 1340.15 -8.18 1335.56 67.15 1295.13 104.82 1258.39 104.82 1187.64 86.44 1156.41 67.15"/>
  <polyline class="st1" points="1270.33 -76.17 1318.34 -13.73 1340.15 -8.18"/>
  <polyline class="st1" points="1318.34 -13.73 1305.24 10.65 1300.62 51.41 1335.56 67.15"/>
  <polyline class="st1" points="1300.62 51.41 1290.91 54.84 1281.19 94.84 1295.13 104.82"/>
  <polyline class="st1" points="1290.91 54.84 1245.76 46.84 1237.19 32.55 1305.24 10.65"/>
  <polyline class="st1" points="1237.19 32.55 1189.19 -.59 1156.41 10.65"/>
  <line class="st1" x1="1189.19" y1="-.59" x2="1206.56" y2="-65.87"/>
  <polyline class="st1" points="1245.76 46.84 1222.91 71.41 1170.91 64.55 1156.41 67.15"/>
  <line class="st1" x1="1170.91" y1="64.55" x2="1156.41" y2="43.98"/>
  <line class="st1" x1="1222.91" y1="71.41" x2="1281.19" y2="94.84"/>
  <polygon class="st0" points="785.31 -20.47 777.39 7.74 785.81 40.8 801.23 68.5 832.59 103.42 866.18 105.57 909.66 84.55 935.02 52.77 945.11 19.72 938.64 -5.31 899.33 -56.89 846.61 -50.32 785.31 -20.47"/>
  <polyline class="st1" points="846.61 -50.32 839.67 -40.57 822.78 -16.82 888.12 18.15 909.06 -5.91 892.91 -49.32 899.33 -56.89"/>
  <line class="st1" x1="892.91" y1="-49.32" x2="841.51" y2="-43.16"/>
  <polyline class="st1" points="822.78 -16.82 805.41 -5.47 796.67 -26"/>
  <polyline class="st1" points="805.41 -5.47 794.53 42.42 785.81 40.8"/>
  <polyline class="st1" points="794.53 42.42 802.63 52.76 801.23 68.5"/>
  <polyline class="st1" points="802.63 52.76 837.64 73.08 850.28 99.84 832.59 103.42"/>
  <line class="st1" x1="850.28" y1="99.84" x2="878.67" y2="99.53"/>
  <polyline class="st1" points="837.64 73.08 883.16 49.81 888.12 18.15"/>
  <line class="st1" x1="883.16" y1="49.81" x2="915.41" y2="77.34"/>
  <polyline class="st1" points="909.06 -5.91 926.93 14.87 945.11 19.72"/>
  <line class="st1" x1="926.93" y1="14.87" x2="911.77" y2="74.24"/>
  <polygon class="st0" points="479.64 30.49 508.6 72.66 518.88 81.92 548.6 92.66 599.18 44.58 622.13 12.96 587.84 -55.23 539.07 -60.18 497.55 -15.61 479.64 30.49"/>
  <polyline class="st1" points="566.88 32.69 539.07 -2.12 506.17 -24.86 491.83 11.82 479.64 30.49"/>
  <polyline class="st1" points="563.84 61.73 599.18 44.58 587.46 30.49 566.88 32.69 558.88 46.11"/>
  <polyline class="st1" points="524.6 19.06 539.07 -2.12 575.65 -52.56 574.11 -56.63"/>
  <line class="st1" x1="575.65" y1="-52.56" x2="591.13" y2="-48.69"/>
  <line class="st1" x1="613.63" y1="-3.93" x2="587.46" y2="30.49"/>
  <polyline class="st1" points="491.83 11.82 524.6 19.06 558.88 46.11 563.84 61.73 548.6 92.66"/>
  <polygon class="st0" points="272.19 -29.95 240.95 -25 231.05 -18.9 207.81 39.01 207.81 48.53 211.24 54.56 242.47 78.63 276 78.63 282.1 73.98 302.29 37.35 307.24 16.42 304.95 -.99 272.19 -29.95"/>
  <polyline class="st1" points="240.95 -25 244.91 5.01 248.74 10.65 273.52 24.34 298.86 24.34 304.95 -.99"/>
  <polyline class="st1" points="298.86 24.34 298.86 33.22 302.29 37.35"/>
  <polyline class="st1" points="298.86 33.22 280.58 47.13 274.53 60.34 282.1 73.98"/>
  <polyline class="st1" points="274.53 60.34 241.88 73.98 225.96 53.6 207.81 48.53"/>
  <polyline class="st1" points="225.96 53.6 233.22 36.24 234.83 26.77 231.61 19.11 215.79 19.11"/>
  <line class="st1" x1="231.61" y1="19.11" x2="244.91" y2="5.01"/>
  <line class="st1" x1="248.74" y1="10.65" x2="234.83" y2="26.77"/>
  <polyline class="st1" points="273.52 24.34 274.53 36.36 280.58 47.13"/>
  <line class="st1" x1="274.53" y1="36.36" x2="233.22" y2="36.24"/>
  <line class="st1" x1="241.88" y1="73.98" x2="242.47" y2="78.63"/>
  <polygon class="st0" points="17.35 58.85 3.45 41.32 1.03 15.14 11.11 1.82 46.98 1.01 64.12 26.33 52.25 55.92 32.58 64.48 17.35 58.85"/>
  <polyline class="st1" points="46.98 1.01 45.77 13.51 58.87 26.81 46.58 37.89 52.25 55.92"/>
  <line class="st1" x1="58.87" y1="26.81" x2="64.12" y2="26.33"/>
  <polyline class="st1" points="3.45 41.32 26.22 53 41.13 39.81 46.58 37.89"/>
  <line class="st1" x1="26.22" y1="53" x2="32.58" y2="64.48"/>
  <polyline class="st1" points="48.82 35.86 39.93 28.47 2.26 28.47"/>
  <polyline class="st1" points="41.13 39.81 39.93 28.47 45.77 13.51 41.74 1.01"/>
</svg>