<?xml version="1.0" encoding="UTF-8"?>
<svg id="_レイヤー_1" data-name="レイヤー_1" xmlns="http://www.w3.org/2000/svg" version="1.1" viewBox="0 0 64.75 65.07">
  <!-- Generator: Adobe Illustrator 29.5.1, SVG Export Plug-In . SVG Version: 2.1.0 Build 141)  -->
  <defs>
    <style>
      .st0 {
        fill: none;
        stroke: #231815;
        stroke-miterlimit: 10;
        stroke-width: 1.54px;
      }
    </style>
  </defs>
  <g>
    <polygon class="st0" points="17.12 58.61 3.21 41.08 .79 14.91 10.87 1.58 46.74 .78 63.89 26.1 52.01 55.69 32.34 64.24 17.12 58.61"/>
    <polyline class="st0" points="46.74 .78 45.53 13.27 58.63 26.57 46.34 37.66 52.01 55.69"/>
    <line class="st0" x1="58.63" y1="26.57" x2="63.89" y2="26.1"/>
    <polyline class="st0" points="3.21 41.08 25.98 52.77 40.9 39.58 46.34 37.66"/>
    <line class="st0" x1="25.98" y1="52.77" x2="32.34" y2="64.24"/>
    <polyline class="st0" points="40.9 39.58 39.69 28.23 45.53 13.27 41.5 .78"/>
    <polyline class="st0" points="48.58 35.63 39.69 28.23 2.02 28.23"/>
  </g>
  <g>
    <polygon class="st0" points="459.7 -203.24 428.46 -198.29 418.56 -192.19 395.32 -134.29 395.32 -124.76 398.75 -118.73 429.98 -94.67 463.51 -94.67 469.61 -99.32 489.8 -135.94 494.75 -156.87 492.46 -174.29 459.7 -203.24"/>
    <polyline class="st0" points="428.46 -198.29 432.42 -168.29 436.25 -162.64 461.03 -148.95 486.37 -148.95 492.46 -174.29"/>
    <polyline class="st0" points="486.37 -148.95 486.37 -140.07 489.8 -135.94"/>
    <polyline class="st0" points="486.37 -140.07 468.09 -126.17 462.04 -112.95 469.61 -99.32"/>
    <polyline class="st0" points="462.04 -112.95 429.39 -99.32 413.47 -119.69 395.32 -124.76"/>
    <polyline class="st0" points="413.47 -119.69 420.73 -137.05 422.34 -146.52 419.12 -154.18 403.3 -154.18"/>
    <line class="st0" x1="419.12" y1="-154.18" x2="432.42" y2="-168.29"/>
    <line class="st0" x1="436.25" y1="-162.64" x2="422.34" y2="-146.52"/>
    <polyline class="st0" points="461.03 -148.95 462.04 -136.94 468.09 -126.17"/>
    <line class="st0" x1="462.04" y1="-136.94" x2="420.73" y2="-137.05"/>
    <line class="st0" x1="429.39" y1="-99.32" x2="429.98" y2="-94.67"/>
  </g>
</svg>