<?xml version="1.0" encoding="UTF-8"?>
<svg id="_レイヤー_1" data-name="レイヤー_1" xmlns="http://www.w3.org/2000/svg" version="1.1" viewBox="0 0 185.76 190.4">
  <!-- Generator: Adobe Illustrator 29.5.1, SVG Export Plug-In . SVG Version: 2.1.0 Build 141)  -->
  <defs>
    <style>
      .st0 {
        fill: #fff;
      }

      .st0, .st1 {
        stroke: #231815;
        stroke-miterlimit: 10;
        stroke-width: 2px;
      }

      .st1 {
        fill: none;
      }
    </style>
  </defs>
  <polygon class="st0" points="1 151.73 1 143.46 1 61.7 17.54 35.97 85.52 1.06 114.92 8.41 155.34 32.3 170.04 47.92 184.74 76.4 180.15 151.73 139.73 189.4 102.98 189.4 32.24 171.02 1 151.73"/>
  <polyline class="st1" points="114.92 8.41 162.93 70.84 184.74 76.4"/>
  <polyline class="st1" points="162.93 70.84 149.83 95.23 145.22 135.99 180.15 151.73"/>
  <polyline class="st1" points="145.22 135.99 135.5 139.42 125.79 179.42 139.73 189.4"/>
  <polyline class="st1" points="135.5 139.42 90.36 131.42 81.79 117.13 149.83 95.23"/>
  <polyline class="st1" points="81.79 117.13 33.78 83.99 1 95.23"/>
  <line class="st1" x1="33.78" y1="83.99" x2="51.15" y2="18.71"/>
  <polyline class="st1" points="90.36 131.42 67.5 155.99 15.5 149.13 1 151.73"/>
  <line class="st1" x1="15.5" y1="149.13" x2="1" y2="128.56"/>
  <line class="st1" x1="67.5" y1="155.99" x2="125.79" y2="179.42"/>
  <polygon class="st0" points="-370.1 64.11 -378.02 92.32 -369.6 125.38 -354.18 153.08 -322.82 188 -289.22 190.15 -245.75 169.13 -220.39 137.35 -210.3 104.3 -216.76 79.27 -256.08 27.69 -308.8 34.26 -370.1 64.11"/>
  <polyline class="st1" points="-308.8 34.26 -315.74 44.01 -332.63 67.76 -267.29 102.73 -246.35 78.67 -262.5 35.25 -256.08 27.69"/>
  <line class="st1" x1="-262.5" y1="35.25" x2="-313.89" y2="41.42"/>
  <polyline class="st1" points="-332.63 67.76 -350 79.11 -358.74 58.58"/>
  <polyline class="st1" points="-350 79.11 -360.88 127 -369.6 125.38"/>
  <polyline class="st1" points="-360.88 127 -352.78 137.34 -354.18 153.08"/>
  <polyline class="st1" points="-352.78 137.34 -317.77 157.66 -305.12 184.42 -322.82 188"/>
  <line class="st1" x1="-305.12" y1="184.42" x2="-276.73" y2="184.11"/>
  <polyline class="st1" points="-317.77 157.66 -272.25 134.39 -267.29 102.73"/>
  <line class="st1" x1="-272.25" y1="134.39" x2="-240" y2="161.92"/>
  <polyline class="st1" points="-246.35 78.67 -228.48 99.45 -210.3 104.3"/>
  <line class="st1" x1="-228.48" y1="99.45" x2="-243.63" y2="158.82"/>
  <polygon class="st0" points="-675.77 115.07 -646.81 157.24 -636.53 166.5 -606.81 177.24 -556.23 129.16 -533.28 97.54 -567.57 29.35 -616.33 24.4 -657.86 68.97 -675.77 115.07"/>
  <polyline class="st1" points="-588.52 117.27 -616.33 82.46 -649.24 59.72 -663.57 96.4 -675.77 115.07"/>
  <polyline class="st1" points="-591.57 146.31 -556.23 129.16 -567.95 115.07 -588.52 117.27 -596.52 130.69"/>
  <polyline class="st1" points="-630.81 103.64 -616.33 82.46 -579.76 32.02 -581.3 27.95"/>
  <line class="st1" x1="-579.76" y1="32.02" x2="-564.28" y2="35.89"/>
  <line class="st1" x1="-541.78" y1="80.65" x2="-567.95" y2="115.07"/>
  <polyline class="st1" points="-663.57 96.4 -630.81 103.64 -596.52 130.69 -591.57 146.31 -606.81 177.24"/>
  <polygon class="st0" points="-883.22 54.63 -914.46 59.58 -924.36 65.68 -947.6 123.59 -947.6 133.11 -944.17 139.14 -912.93 163.21 -879.41 163.21 -873.31 158.56 -853.12 121.93 -848.17 101 -850.45 83.59 -883.22 54.63"/>
  <polyline class="st1" points="-914.46 59.58 -910.5 89.59 -906.67 95.23 -881.89 108.92 -856.55 108.92 -850.45 83.59"/>
  <polyline class="st1" points="-856.55 108.92 -856.55 117.8 -853.12 121.93"/>
  <polyline class="st1" points="-856.55 117.8 -874.83 131.71 -880.88 144.92 -873.31 158.56"/>
  <polyline class="st1" points="-880.88 144.92 -913.52 158.56 -929.44 138.18 -947.6 133.11"/>
  <polyline class="st1" points="-929.44 138.18 -922.19 120.82 -920.58 111.35 -923.8 103.69 -939.62 103.69"/>
  <line class="st1" x1="-923.8" y1="103.69" x2="-910.5" y2="89.59"/>
  <line class="st1" x1="-906.67" y1="95.23" x2="-920.58" y2="111.35"/>
  <polyline class="st1" points="-881.89 108.92 -880.88 120.94 -874.83 131.71"/>
  <line class="st1" x1="-880.88" y1="120.94" x2="-922.19" y2="120.82"/>
  <line class="st1" x1="-913.52" y1="158.56" x2="-912.93" y2="163.21"/>
  <polygon class="st0" points="-1138.05 143.43 -1151.96 125.9 -1154.38 99.72 -1144.3 86.4 -1108.43 85.59 -1091.28 110.91 -1103.16 140.5 -1122.83 149.06 -1138.05 143.43"/>
  <polyline class="st1" points="-1108.43 85.59 -1109.64 98.09 -1096.54 111.39 -1108.83 122.47 -1103.16 140.5"/>
  <line class="st1" x1="-1096.54" y1="111.39" x2="-1091.28" y2="110.91"/>
  <polyline class="st1" points="-1151.96 125.9 -1129.19 137.58 -1114.27 124.39 -1108.83 122.47"/>
  <line class="st1" x1="-1129.19" y1="137.58" x2="-1122.83" y2="149.06"/>
  <polyline class="st1" points="-1106.59 120.44 -1115.48 113.05 -1153.15 113.05"/>
  <polyline class="st1" points="-1114.27 124.39 -1115.48 113.05 -1109.64 98.09 -1113.67 85.59"/>
</svg>