<?xml version="1.0" encoding="UTF-8"?>
<svg id="_レイヤー_1" data-name="レイヤー_1" xmlns="http://www.w3.org/2000/svg" version="1.1" viewBox="0 0 169.8 164.54">
  <!-- Generator: Adobe Illustrator 29.5.1, SVG Export Plug-In . SVG Version: 2.1.0 Build 141)  -->
  <defs>
    <style>
      .st0 {
        fill: #fff;
      }

      .st0, .st1 {
        stroke: #231815;
        stroke-miterlimit: 10;
        stroke-width: 2px;
      }

      .st1 {
        fill: none;
      }
    </style>
  </defs>
  <polygon class="st0" points="380.06 125.11 380.06 116.84 380.06 35.07 396.59 9.35 464.58 -25.56 493.98 -18.21 534.4 5.67 549.1 21.29 563.8 49.77 559.21 125.11 518.78 162.78 482.04 162.78 411.29 144.4 380.06 125.11"/>
  <polyline class="st1" points="493.98 -18.21 541.99 44.22 563.8 49.77"/>
  <polyline class="st1" points="541.99 44.22 528.89 68.61 524.27 109.37 559.21 125.11"/>
  <polyline class="st1" points="524.27 109.37 514.56 112.8 504.84 152.8 518.78 162.78"/>
  <polyline class="st1" points="514.56 112.8 469.41 104.8 460.84 90.51 528.89 68.61"/>
  <polyline class="st1" points="460.84 90.51 412.84 57.36 380.06 68.61"/>
  <line class="st1" x1="412.84" y1="57.36" x2="430.21" y2="-7.91"/>
  <polyline class="st1" points="469.41 104.8 446.56 129.37 394.55 122.51 380.06 125.11"/>
  <line class="st1" x1="394.55" y1="122.51" x2="380.06" y2="101.94"/>
  <line class="st1" x1="446.56" y1="129.37" x2="504.84" y2="152.8"/>
  <polygon class="st0" points="8.96 37.48 1.04 65.69 9.46 98.75 24.88 126.46 56.24 161.38 89.83 163.53 133.31 142.51 158.67 110.73 168.76 77.68 162.29 52.64 122.98 1.06 70.26 7.63 8.96 37.48"/>
  <polyline class="st1" points="70.26 7.63 63.32 17.39 46.43 41.14 111.77 76.1 132.71 52.04 116.56 8.63 122.98 1.06"/>
  <line class="st1" x1="116.56" y1="8.63" x2="65.16" y2="14.8"/>
  <polyline class="st1" points="46.43 41.14 29.06 52.48 20.32 31.95"/>
  <polyline class="st1" points="29.06 52.48 18.18 100.38 9.46 98.75"/>
  <polyline class="st1" points="18.18 100.38 26.28 110.72 24.88 126.46"/>
  <polyline class="st1" points="26.28 110.72 61.29 131.03 73.93 157.8 56.24 161.38"/>
  <line class="st1" x1="73.93" y1="157.8" x2="102.32" y2="157.49"/>
  <polyline class="st1" points="61.29 131.03 106.8 107.77 111.77 76.1"/>
  <line class="st1" x1="106.8" y1="107.77" x2="139.06" y2="135.3"/>
  <polyline class="st1" points="132.71 52.04 150.58 72.83 168.76 77.68"/>
  <line class="st1" x1="150.58" y1="72.83" x2="135.42" y2="132.19"/>
  <polygon class="st0" points="-296.71 88.45 -267.75 130.62 -257.47 139.87 -227.75 150.62 -177.17 102.54 -154.23 70.92 -188.51 2.73 -237.28 -2.23 -278.8 42.35 -296.71 88.45"/>
  <polyline class="st1" points="-209.47 90.65 -237.28 55.84 -270.18 33.1 -284.52 69.78 -296.71 88.45"/>
  <polyline class="st1" points="-212.51 119.68 -177.17 102.54 -188.89 88.45 -209.47 90.65 -217.47 104.06"/>
  <polyline class="st1" points="-251.75 77.01 -237.28 55.84 -200.7 5.39 -202.24 1.33"/>
  <line class="st1" x1="-200.7" y1="5.39" x2="-185.22" y2="9.27"/>
  <line class="st1" x1="-162.72" y1="54.02" x2="-188.89" y2="88.45"/>
  <polyline class="st1" points="-284.52 69.78 -251.75 77.01 -217.47 104.06 -212.51 119.68 -227.75 150.62"/>
  <polygon class="st0" points="-504.16 28.01 -535.4 32.96 -545.3 39.06 -568.54 96.96 -568.54 106.49 -565.12 112.52 -533.88 136.58 -500.35 136.58 -494.26 131.93 -474.06 95.31 -469.11 74.38 -471.4 56.96 -504.16 28.01"/>
  <polyline class="st1" points="-535.4 32.96 -531.44 62.96 -527.62 68.61 -502.83 82.3 -477.49 82.3 -471.4 56.96"/>
  <polyline class="st1" points="-477.49 82.3 -477.49 91.18 -474.06 95.31"/>
  <polyline class="st1" points="-477.49 91.18 -495.77 105.08 -501.82 118.3 -494.26 131.93"/>
  <polyline class="st1" points="-501.82 118.3 -534.47 131.93 -550.39 111.56 -568.54 106.49"/>
  <polyline class="st1" points="-550.39 111.56 -543.13 94.2 -541.52 84.73 -544.74 77.07 -560.56 77.07"/>
  <line class="st1" x1="-544.74" y1="77.07" x2="-531.44" y2="62.96"/>
  <line class="st1" x1="-527.62" y1="68.61" x2="-541.52" y2="84.73"/>
  <polyline class="st1" points="-502.83 82.3 -501.82 94.31 -495.77 105.08"/>
  <line class="st1" x1="-501.82" y1="94.31" x2="-543.13" y2="94.2"/>
  <line class="st1" x1="-534.47" y1="131.93" x2="-533.88" y2="136.58"/>
  <polygon class="st0" points="-759 116.81 -772.9 99.27 -775.32 73.1 -765.24 59.77 -729.37 58.97 -712.23 84.29 -724.1 113.88 -743.77 122.43 -759 116.81"/>
  <polyline class="st1" points="-729.37 58.97 -730.58 71.46 -717.48 84.76 -729.78 95.85 -724.1 113.88"/>
  <line class="st1" x1="-717.48" y1="84.76" x2="-712.23" y2="84.29"/>
  <polyline class="st1" points="-772.9 99.27 -750.13 110.96 -735.22 97.77 -729.78 95.85"/>
  <line class="st1" x1="-750.13" y1="110.96" x2="-743.77" y2="122.43"/>
  <polyline class="st1" points="-727.53 93.82 -736.43 86.42 -774.09 86.42"/>
  <polyline class="st1" points="-735.22 97.77 -736.43 86.42 -730.58 71.46 -734.61 58.97"/>
</svg>