<?xml version="1.0" encoding="UTF-8"?>
<svg id="_レイヤー_1" data-name="レイヤー_1" xmlns="http://www.w3.org/2000/svg" version="1.1" viewBox="0 0 97.69 299.52">
  <!-- Generator: Adobe Illustrator 29.5.1, SVG Export Plug-In . SVG Version: 2.1.0 Build 141)  -->
  <defs>
    <style>
      .st0 {
        stroke: #000;
        stroke-width: .6px;
      }

      .st0, .st1, .st2, .st3, .st4, .st5, .st6 {
        stroke-miterlimit: 10;
      }

      .st1 {
        fill: #70b876;
      }

      .st1, .st2, .st3, .st4, .st5, .st6 {
        stroke: #231815;
        stroke-width: 1.54px;
      }

      .st2 {
        fill: none;
      }

      .st3 {
        fill: #3e72a0;
      }

      .st7 {
        fill: #fff;
      }

      .st4 {
        fill: #979191;
      }

      .st5 {
        fill: #6fa7b1;
      }

      .st6 {
        fill: #be4855;
      }
    </style>
  </defs>
  <path class="st7" d="M52.58,285.7c-.73,3.59-3.27,13.26,2.43,13.51,1.9.08,5.93-.21,7.94-.39,1.14-.1,4.87-.69,5.52-1.43,2.36-2.7-3.58-9.38-3.09-9.86,0,0-.4-1.15-1.12-1.32.27-2.85-.51-5.46-.3-8.32.45-6.04,3.14-13.93,4.22-20.27.93-5.46,1.74-10.98,1.94-16.52,4.09-.41,8.15.93,8.73-4.25.95-8.44.46-17.13,1.52-25.53l.4-24.1,7.81-4.25c1.22-1.08,4.56-8.09,4.57-9.69-.09-1.7-1.17-8.68-.55-9.69.23-.38,1.21-.66,1.65-1.27.93-1.27.49-2.6.88-3.87.54-1.78,1.51-3.52,1.92-5.39,1.26-5.74-1.61-20.99-2.5-27.63-1.62-12-5.15-43.2-11.21-52.41-3.56-5.41-13.1-7.3-18.54-10.34l-2.65-14.89c1.02-.88,2.57-6.74,2.91-6.98.35-.25,1.81-.27,2.83-1.01,2.12-1.54,3.6-6.18,3.54-8.69-.04-1.48-.79-2.64-.93-3.74-.2-1.52.15-3.22-.02-4.73-1-8.76-4.18-17.06-12.65-20.98-4.15-1.92-5.03-1.16-9.1-1.14-2.9.01-3.67-.7-6.96.35-8.85,2.81-14.39,11.68-15.15,20.68-.15,1.76.19,3.72-.04,5.45-.17,1.24-1.02,2.44-1.08,3.7-.11,2.1,1.31,6.64,2.74,8.23,1.1,1.21,3.77,1.85,3.9,2.03.39.56.78,3,1.49,4.28,1.54,2.77,4.19,3.52,4.65,7.05,1.27,9.78-2.85,9.05-9.61,12.27-13.28,6.33-15.05,7.63-18.63,22.32-3.98,16.34-7.05,36.41-8.98,53.18-.6,5.22-1.41,10.08.06,15.21.36,1.26,1.43,3.06,1.64,4.21.28,1.5-.17,3.18.16,4.59.22.93,1.21,1.47,1.3,1.95.33,1.75-.98,6.57-1.03,8.72-.16,6.86,3.77,11.29,9.49,14.32l-1.81,34.66c.62,4.28-.82,10.95.09,14.93.43,1.88,4.75,2.66,6.49,3.02,3.34.69,6.85.99,10.25.9-.12,4.45.77,8.87,1.58,13.23,1.53,8.29,6.14,20.64,4.63,28.63-.13.7-1.78,2.38-2.46,2.66l-1.37,1.19c-.15.73-1.25,1.76-1.82,2.2-.88.68-2.74,1.28-3.2,2.28-.55,1.17-.4,2.78.45,3.76,2.18,2.5,13.17,3.43,15.56,1.28.91-.82,1.15-2.64,1.82-3.29.68-.65,2.38-.66,2.91-1.84.81-1.8-.29-4.99-.18-6.94v-1.1c1.33-3.54-.41-6.54-.73-9.69-.37-3.63.23-7.39.36-10.97.26-7.27.64-14.54.96-21.79l.37-.71,5.25-.35c.11,2.49-.15,5.02-.02,7.51.43,8.25,2.01,18.14,1.11,26.31-.17,1.53-1.01,2.73-1.11,4.37-.12,1.86.51,3.48.38,5.32l.37,1.1Z"/>
  <g>
    <path class="st0" d="M63.91,62.31l-1.09-1.29-1.47-12.6c.56-.06.52.97.61,1.39.88,4.11,1.41,8.33,1.94,12.5ZM62.08,61.21c-3.11-2.19-2.77-7.31-2.01-10.62.15-.65-.03-1.3.91-1.08l1.1,11.7ZM65.37,39.64c-.12-2.14.84-2.03,2.19-3.11l-1.46.55v-1.83s1.09.36,1.09.36c-.91-1.53.52-2.05.61-2.28.24-.63-.24-1.1.66-2.14.18-.21,2.08-.73.38-1.07l-2.38,2.92c.31-2.12.64-4.94,3.28-5.12.97,3.87.18,10.66-4.38,11.7ZM27.35,27.94c2.26-.1,2.3,2.43,2.92,4.02-1.17.26-.78-1.48-2.01-1.48-1.54,0-.77,2.42,0,.39.59.27,1.42,1.87,1.48,2.52.07.69-1,1.5-.02,1.86.36.13.22-1.56.91-1.46l.37,3.29-1.28-.73c-.34,1.45,2.36,1.06,2.01,3.29-4.51-.82-5.69-7.93-4.38-11.7ZM30.56,28.93c-.68-1.65-1.11-1.68-2.87-1.9l-.26-.36c.27-5.7.92-11.47,4.01-16.4,2.4-3.83,8.07-8.32,12.64-8.94,1.7-.23,7.64-.24,9.32,0,2.12.31,5.06,1.84,6.83,3.05,7.37,5.04,9.54,14.32,9.17,22.82-.6.02-1.28-.11-1.84.17-.64.32-.45,1.28-1.08,1.29-.76-2.83-1.56-5.72-2.76-8.4-.17-.38-1.03-2.94-1.46-1.84-.37.94,3.73,10.05,3.85,11.88-1.59,6.87-1.7,14.4-7.5,19.19-7.14,5.89-12.66,5.98-19.72,0-8.14-6.9-5.01-12.59-8.31-20.57ZM38.47,60.08c.18-.36.95-2.52.95-2.71,0-1.77.13-3.75,0-5.48,0-.09-.79-.63-.18-.91,4.32,3.8,9.08,5.29,14.58,2.88.83-.36,5.11-3.44,5.35-3.24-1.69,5.36-.37,12.06,5.86,13.34-4.96,2.5-11.45,4.19-17.01,4.57-4.81.32-9.99-.95-14.43-2.74-.6-.24-1.91-.7-2.2-1.27,2.79-.87,5.68-1.61,7.09-4.43ZM9.27,185.51l-4.22-9.49,2.19,7.68c-4.61-5.71-2.23-12.78-1.77-19.51l.55-.55c1.96-.09,6.5-.52,7.28,1.76,1.11,5.18-.26,10.49-.2,15.74-2.87-1.28-2.79-5.63-2.92-8.41-1.47-.23-.36.93-.36,1.28,0,2.21-.38,6.54,0,8.41.45,2.23,3.77,2.52,2.92,5.3l-3.46-2.21ZM13.04,182.5l-.32,2.29c-2.19-1.2-2.5-3.55-2.55-5.85l2.87,3.55ZM27.35,241.46c-2.19-.15-4.6.2-6.76,0-1.65-.15-6.42-1.25-7.76-2.1-.37-.24-.64.02-.47-.82l15.36-1.46-.37,4.38ZM42.13,293.35c-.94.75-.9,3.59-3.06,4.25-4.97,1.53-3.93-1.89-1.12-4.04-1.84-.49-3.4,2.56-3.29,4.21l-1.48-.16c-1.21-2.27.2-3.17,1.85-4.41-2.29-.53-3.87,2.63-2.92,4.57-.98.19-2.89-.51-2.92-1.63l1.82-3.12c-.57-.6-3.23,2.64-2.56,3.66-1.08.38-.85-1.4-.72-2.01.18-.84.78-.99,1.09-1.65-1.95,0-1.9,1.75-1.83,3.29-3.46-2.96,1.27-4.14,2.95-5.65,1.68-1.52,3.32-4.25,5.3-5.7-.01-3.21.17-5.95-.3-9.21-.7-4.87-2.44-9.96-3.44-14.84-1.65-7.99-3.24-15.98-2.68-24.2l16.09-1.1v14.82c-.2,7.27-2.27,19.14-1,25.85.9,4.75.35,5.97.62,10.34.08,1.34.88,3.55.69,4.65-.32,1.89-2.2,1.37-3.08,2.07ZM52.58,285.7c-.73,3.59-3.27,13.26,2.43,13.51,1.9.08,5.93-.21,7.94-.39,1.14-.1,4.87-.69,5.52-1.43,2.36-2.7-3.58-9.38-3.09-9.86,0,0-.4-1.15-1.12-1.32.27-2.85-.51-5.46-.3-8.32.45-6.04,3.14-13.93,4.22-20.27.93-5.46,1.74-10.98,1.94-16.52,4.09-.41,8.15.93,8.73-4.25.95-8.44.46-17.13,1.52-25.53l.4-24.1,7.81-4.25c1.22-1.08,4.56-8.09,4.57-9.69-.09-1.7-1.17-8.68-.55-9.69.23-.38,1.21-.66,1.65-1.27.93-1.27.49-2.6.88-3.87.54-1.78,1.51-3.52,1.92-5.39,1.26-5.74-1.61-20.99-2.5-27.63-1.62-12-5.15-43.2-11.21-52.41-3.56-5.41-13.1-7.3-18.54-10.34l-2.65-14.89c1.02-.88,2.57-6.74,2.91-6.98.35-.25,1.81-.27,2.83-1.01,2.12-1.54,3.6-6.18,3.54-8.69-.04-1.48-.79-2.64-.93-3.74-.2-1.52.15-3.22-.02-4.73-1-8.76-4.18-17.06-12.65-20.98-4.15-1.92-5.03-1.16-9.1-1.14-2.9.01-3.67-.7-6.96.35-8.85,2.81-14.39,11.68-15.15,20.68-.15,1.76.19,3.72-.04,5.45-.17,1.24-1.02,2.44-1.08,3.7-.11,2.1,1.31,6.64,2.74,8.23,1.1,1.21,3.77,1.85,3.9,2.03.39.56.78,3,1.49,4.28,1.54,2.77,4.19,3.52,4.65,7.05,1.27,9.78-2.85,9.05-9.61,12.27-13.28,6.33-15.05,7.63-18.63,22.32-3.98,16.34-7.05,36.41-8.98,53.18-.6,5.22-1.41,10.08.06,15.21.36,1.26,1.43,3.06,1.64,4.21.28,1.5-.17,3.18.16,4.59.22.93,1.21,1.47,1.3,1.95.33,1.75-.98,6.57-1.03,8.72-.16,6.86,3.77,11.29,9.49,14.32l-1.81,34.66c.62,4.28-.82,10.95.09,14.93.43,1.88,4.75,2.66,6.49,3.02,3.34.69,6.85.99,10.25.9-.12,4.45.77,8.87,1.58,13.23,1.53,8.29,6.14,20.64,4.63,28.63-.13.7-1.78,2.38-2.46,2.66l-1.37,1.19c-.15.73-1.25,1.76-1.82,2.2-.88.68-2.74,1.28-3.2,2.28-.55,1.17-.4,2.78.45,3.76,2.18,2.5,13.17,3.43,15.56,1.28.91-.82,1.15-2.64,1.82-3.29.68-.65,2.38-.66,2.91-1.84.81-1.8-.29-4.99-.18-6.94v-1.1c1.33-3.54-.41-6.54-.73-9.69-.37-3.63.23-7.39.36-10.97.26-7.27.64-14.54.96-21.79l.37-.71,5.25-.35c.11,2.49-.15,5.02-.02,7.51.43,8.25,2.01,18.14,1.11,26.31-.17,1.53-1.01,2.73-1.11,4.37-.12,1.86.51,3.48.38,5.32l.37,1.1ZM45.99,235.25h5.85s-.05,4.7-.05,4.7l-5.42.77c-.64-1.76-.32-3.64-.38-5.48ZM66.66,259.75c-1.33,7.39-3.73,14.59-3.86,22.13-.01.66.36,1.33.34,1.83-.03.67-.59,1.09-.64,1.51-.07.6,5.72,7.98,5.36,10.82-.11.9-.86,1.39-1.76,1.36.64-1.23.69-3.82-1.1-4.01.81,1.16.83,2.38.74,3.77l-1.47.61c1.12-.89-1.24-5.05-1.82-4.38l1.48,3.47c-.09.96-1.37,1.34-2.21,1.29-.1-1.78-.45-3.85-2.19-4.75.15,1.79,2.24,2.74,1.04,4.7l-2.13.05c-.03-1.61-.18-4.09-2.2-4.38.98,1.2,1.47,2.47.94,4.04-5.33,1.96-4.98-3.39-4.55-7.12.16-1.4,1.04-3.1,1.07-4.44.05-2.12-.96-4.62-.75-6.93.11-1.24.8-2.25,1-3.39,1.1-6.29.1-14.58-.27-21.1-.36-6.39-1.69-12.79-.73-19.2l16.09,1.83c.23,7.51-1.04,14.96-2.37,22.31ZM70.13,240.37v-2.56s7.31.74,7.31.74c-1.72,1.64-5.05,1.28-7.31,1.83ZM79.28,209.49l-1.48,27.96c-7.78-.48-15.47-2.22-23.22-2.92-7.38-.67-14.92.04-22.3.73-6.76.63-13.55,1.71-20.29,2.56l.35-25.79c-.04-.75.35-1.46.38-2.18.74-18.6,1.55-37.38,2.93-55.93.84-11.25,2.75-22.37,4.1-33.56.36-.86,4.99-2.33,6.14-2.64,1.9-.51,3.87-1.02,5.85-.91-.74,2.93-.26,6.26-.35,9.33-.91,31.51-.93,63.17-1.84,94.68-.09,3.18-.39,6.81-.39,9.86,0,.78-.3,1.52.75,1.29.18-3.46.22-6.95.37-10.41.86-19.85.74-40.06,1.11-59.95.26-14.04.67-28.04.69-42.08,0-1.26.85-1.95-.35-3.09l15.92-1.11,14.79,1.48c.18.13-.37.47-.37.54v26.51h.73v-26.69l13.92,3.51c.02,4.17.92,8.3,1.39,12.44,2.89,25.34,1.12,50.97,1.16,76.38ZM80.37,154.81c.49.06.64.5.71.93.22,1.3.8,5.84.73,6.91-.02.38-.55,1.94-1.08,2.03-.12-2.59.17-5.27,0-7.86-.03-.42-.67-1.29-.36-2.01ZM87.49,182.6l3.47-8.6-.72-.18c-2.06,5.36-3.43,10.5-9.51,12.43-.27-1.87,1.68-2.7,2.71-4.05.47-.62,2.04-3.24,2.04-3.81v-8.59l-1.92,8.13c-.21.51-2.44,2.91-2.83,2.47-.4-1.83.38-4.07.38-5.68,0-1.78-.58-3.34-.34-5.43.12-1.05,2.44-7.89,2.96-8.74,1.17-1.95,5.7-1.44,7.56-.57,0,3.84.38,7.62.41,11.46,0,.61.37,1.22.37,1.84,0,2.27-2.93,7.58-4.58,9.32ZM83.65,179.13l1.09-2.38c.19,2.89-1.83,5.32-4.01,6.94-.8-3.23,1.51-2.51,2.92-4.57ZM94.06,158.45c-.36,1.23.23,3.51-1.63,3.67-.84-1.51,1.1-.83.02-2.4-1.47-2.14-6.83-1.88-8.94-.48-.54.35-.38,1.09-.95,1.06-.17-3.16-.99-6.25-1.41-9.37-.71-5.25-2.27-14.69-2.11-19.63.22-6.69,2.95-16.02,3.83-23.15.46-3.73,1.11-8.32,1.18-12.01.01-.62-.07-2.48-.76-2.74l-1.15,14.75-3.6,20.71-1.12-12.6c-.18-12.78.31-25.84,2.55-38.43.09-.5.89-.99-.15-.89-1.87,5.82-2.13,12.51-2.38,18.65-.59-.06-.69-1.57-.72-2.01-.22-2.68-.07-5.72-.36-8.42-.06-.55-.08-1.13-.74-1.26l1.09,35.83c-6.53-1.35-13.31-3.67-19.93-4.38-4.01-.43-8.11-.41-12.05-.35-8.56.12-17.25.46-25.05,4.37l1.45-37.66c-.71.15-.64.73-.73,1.28-.78,4.85-.41,10.26-.91,15.17l-3.11-19.74c-.08-.1-.47.19-.55.36-1.11,2.26,2.82,18.21,3.11,22.13.44,5.97.22,14.83-.4,20.79-.04.38-.15,1.72-.68,1.69-1.23-7.6-3.01-15.15-3.66-22.85-.12-1.42.17-3.03,0-4.39-.06-.5-.27-1.14-.73-.54-.15,10.37,2.28,20.48,4.42,30.53-1.77,12.81-3.57,25.6-3.69,38.57-.62-.06-.45-.83-1.11-1.27-2.02-1.35-7.08-1.36-9.13.17.7-3.58-1.11-6.06-1.93-9.23-1.63-6.36.34-15.36,1.25-21.97,1.96-14.19,5.41-44.32,11.32-56.32,3.05-6.2,10.15-8.16,15.92-11.13,10.52,6.69,24.76,5.27,35.39-.41,4.71,2.14,12.56,4.2,15.91,8.21,3.37,4.04,5.39,14.54,6.47,19.85,3.75,18.3,5.28,37.02,8.15,55.46.61,3.84-1.38,6.95-2.39,10.4Z"/>
    <path class="st0" d="M51.11,116.06l.02,18.11c-.02.86-.38,1.66-.4,2.53-.61,27.94-1.69,55.8-2.91,83.74l-.72,2.74,4.02-107.12Z"/>
    <path class="st0" d="M69.03,119.35l2.56,70.56c-.45.59-.66,0-.73-.54-.4-3.14.13-7.31.02-10.62-.63-17.98-1.99-36.1-2.59-54.08-.05-1.38-.15-3.48.01-4.77.07-.53.28-1.13.73-.54Z"/>
    <path class="st0" d="M25.52,118.98l-2.55,31.65-.74.89c.59-6.88,1.26-13.78,1.82-20.66.31-3.76.27-7.58.74-11.33.06-.5.26-1.16.73-.54Z"/>
    <path class="st0" d="M82.56,149.33c2.81.82,6.03.11,8.41-1.47,1.29,1.3-7.99,4.17-8.41,1.47Z"/>
    <path class="st0" d="M13.46,154.08c-1.36,2.22-6.84,1.01-8.04-1.1,1.37.54,2.31,1.24,3.88,1.42,1.47.17,2.75.06,4.17-.32Z"/>
    <path class="st0" d="M45.63,11.12l-2.75,4.38-2.73,6.04,4.71.58-.14,1.45c-.22.39-2.85-.36-3.65-.4-1.89-.09-3.86-.09-5.68.38l-.36-2.92-3.3,8.41c-.71.04-.73.17-.74-.56-.03-2.93,4.43-8.85,4.77-12.24,1.47,1.12-.2,4.08.36,5.85l2.56-5.48.69.51-2.16,4.97c3.13.06,2.94-2.94,4.07-5.25.69-1.4,3.76-6.99,4.69-7.74.27-.22.72-.35.74.01.17.41-.37.92-.37,1.09v6.58l1.46,4.2c.45-3.48.83-7.44,1.82-10.8.16-.53-.2-.64.74-.53l1.1,8.41,1.09-2.92.37,6.58h4.02s-2.56-7.67-2.56-7.67c-.65-.08-.35.82-.32,1.23.07.77.49,1.57.32,2.42-.07.1-.47-.19-.55-.36-.39-.83-.97-5.19-1.19-6.49-.12-.7,0-.44.65-.46l4.36,11.11,1.5.22v-6.4s-.72-.97.18-.91c1.03.07,1.72,6.48,2.08,7.42.3.79,1.8.72,1.39,2.08-1.57-.41-3.74-1.06-5.34-1.06-1.28,0-4.5,1.24-5.11.73-.89-.75-1.9-9.35-2.35-11l-1.64,10.24c-.3.82-.38.38-.64-.1-.41-.78-2.11-5.35-2.11-5.94v-5.67Z"/>
    <path class="st0" d="M57.33,40.74l-.72.36c-1.43,6.08-9.63,7.41-13.72,2.93-.96-1.05-1.22-2.98-2.74-2.2-.09-1.69,2.17-.72,3.09-.71,4.72.03,9.4,0,14.09-.38ZM53.86,42.2c-3.17.19-6.66,0-9.87,0-.17,0-.97-1.02-.91.18,2.15,2.7,4.56,3.83,8.05,2.94.94-.24,3.66-2.1,4.01-2.94.46-1.12-1.17-.18-1.28-.18Z"/>
    <path class="st0" d="M61.35,29.4l-2.56-1.1-.34,2.32c-1.76,1.42-3.91.3-3.69-1.95l-2.19.55c2.1-2.86,7.28-3.46,8.77.18Z"/>
    <path class="st0" d="M44.17,29.4c-.82.22-1.05-.86-1.63-.95-1.13-.17-1.6.67-1.19,1.62.07.16.78-.16.62.42l-1.99.76c-1.2-.09-1.8-1.91-1.67-2.95l-2.38,1.1c-.44-1.56,3.41-2.64,4.71-2.54.79.06,4.26,1.8,3.51,2.54Z"/>
  </g>
  <g>
    <polygon class="st3" points="537.91 180.18 537.91 171.91 537.91 90.14 554.45 64.42 622.43 29.51 651.83 36.86 692.26 60.74 706.95 76.36 721.65 104.84 717.06 180.18 676.64 217.84 639.89 217.84 569.15 199.47 537.91 180.18"/>
    <polyline class="st2" points="651.83 36.86 699.84 99.29 721.65 104.84"/>
    <polyline class="st2" points="699.84 99.29 686.74 123.68 682.13 164.44 717.06 180.18"/>
    <polyline class="st2" points="682.13 164.44 672.41 167.86 662.7 207.87 676.64 217.84"/>
    <polyline class="st2" points="672.41 167.86 627.27 159.86 618.7 145.58 686.74 123.68"/>
    <polyline class="st2" points="618.7 145.58 570.69 112.43 537.91 123.68"/>
    <line class="st2" x1="570.69" y1="112.43" x2="588.06" y2="47.16"/>
    <polyline class="st2" points="627.27 159.86 604.41 184.44 552.41 177.58 537.91 180.18"/>
    <line class="st2" x1="552.41" y1="177.58" x2="537.91" y2="157.01"/>
    <line class="st2" x1="604.41" y1="184.44" x2="662.7" y2="207.87"/>
  </g>
  <g>
    <polygon class="st1" points="373.75 91.8 365.82 120.01 374.24 153.07 389.67 180.77 421.03 215.69 454.62 217.84 498.1 196.82 523.45 165.04 533.55 131.99 527.08 106.96 487.77 55.38 435.04 61.95 373.75 91.8"/>
    <polyline class="st2" points="435.04 61.95 428.11 71.7 411.22 95.46 476.56 130.42 497.5 106.36 481.35 62.95 487.77 55.38"/>
    <line class="st2" x1="481.35" y1="62.95" x2="429.95" y2="69.11"/>
    <polyline class="st2" points="411.22 95.46 393.84 106.8 385.11 86.27"/>
    <polyline class="st2" points="393.84 106.8 382.97 154.69 374.24 153.07"/>
    <polyline class="st2" points="382.97 154.69 391.07 165.03 389.67 180.77"/>
    <polyline class="st2" points="391.07 165.03 426.07 185.35 438.72 212.11 421.03 215.69"/>
    <line class="st2" x1="438.72" y1="212.11" x2="467.11" y2="211.8"/>
    <polyline class="st2" points="426.07 185.35 471.59 162.08 476.56 130.42"/>
    <line class="st2" x1="471.59" y1="162.08" x2="503.85" y2="189.61"/>
    <polyline class="st2" points="497.5 106.36 515.37 127.14 533.55 131.99"/>
    <line class="st2" x1="515.37" y1="127.14" x2="500.21" y2="186.51"/>
  </g>
  <g>
    <polygon class="st4" points="489.17 11.5 518.12 53.67 528.41 62.92 558.13 73.66 608.71 25.59 631.65 -6.03 597.36 -74.23 548.6 -79.18 507.08 -34.6 489.17 11.5"/>
    <polyline class="st2" points="501.36 -7.18 534.12 .06 568.41 27.11 573.36 42.73 558.13 73.66"/>
    <polyline class="st2" points="573.36 42.73 608.71 25.59 596.98 11.5 576.41 13.7 568.41 27.11"/>
    <polyline class="st2" points="576.41 13.7 548.6 -21.11 515.69 -43.86 501.36 -7.18 489.17 11.5"/>
    <polyline class="st2" points="534.12 .06 548.6 -21.11 585.17 -71.56 583.64 -75.62"/>
    <line class="st2" x1="585.17" y1="-71.56" x2="600.66" y2="-67.68"/>
    <line class="st2" x1="623.16" y1="-22.93" x2="596.98" y2="11.5"/>
  </g>
  <g>
    <polygon class="st5" points="666.5 -77.37 635.26 -72.41 625.35 -66.32 602.11 -8.41 602.11 1.11 605.54 7.14 636.78 31.21 670.31 31.21 676.4 26.56 696.6 -10.07 701.55 -31 699.26 -48.41 666.5 -77.37"/>
    <polyline class="st5" points="635.26 -72.41 639.21 -42.41 643.04 -36.77 667.83 -23.08 693.17 -23.08 699.26 -48.41"/>
    <polyline class="st5" points="693.17 -23.08 693.17 -14.2 696.6 -10.07"/>
    <polyline class="st5" points="693.17 -14.2 674.88 -.29 668.84 12.92 676.4 26.56"/>
    <polyline class="st5" points="668.84 12.92 636.19 26.56 620.27 6.18 602.11 1.11"/>
    <polyline class="st5" points="620.27 6.18 627.53 -11.18 629.14 -20.65 625.91 -28.31 610.1 -28.31"/>
    <line class="st5" x1="625.91" y1="-28.31" x2="639.21" y2="-42.41"/>
    <line class="st5" x1="643.04" y1="-36.77" x2="629.14" y2="-20.65"/>
    <polyline class="st5" points="667.83 -23.08 668.84 -11.06 674.88 -.29"/>
    <line class="st5" x1="668.84" y1="-11.06" x2="627.53" y2="-11.18"/>
    <line class="st5" x1="636.19" y1="26.56" x2="636.78" y2="31.21"/>
  </g>
  <g>
    <polygon class="st6" points="440.43 7.04 426.52 -10.5 424.1 -36.67 434.18 -49.99 470.05 -50.8 487.2 -25.48 475.32 4.11 455.65 12.67 440.43 7.04"/>
    <polyline class="st2" points="470.05 -50.8 468.84 -38.31 481.94 -25 469.65 -13.92 475.32 4.11"/>
    <line class="st2" x1="481.94" y1="-25" x2="487.2" y2="-25.48"/>
    <polyline class="st2" points="426.52 -10.5 449.29 1.19 464.21 -12 469.65 -13.92"/>
    <line class="st2" x1="449.29" y1="1.19" x2="455.65" y2="12.67"/>
    <polyline class="st2" points="464.21 -12 463 -23.35 468.84 -38.31 464.81 -50.8"/>
    <polyline class="st2" points="471.89 -15.95 463 -23.35 425.33 -23.35"/>
  </g>
</svg>